<?xml version="1.0" encoding="utf-8"?>
<!-- Generator: Adobe Illustrator 27.8.1, SVG Export Plug-In . SVG Version: 6.00 Build 0)  -->
<svg version="1.1" id="Layer_1" xmlns="http://www.w3.org/2000/svg" xmlns:xlink="http://www.w3.org/1999/xlink" x="0px" y="0px"
	 viewBox="0 0 1300 1080" style="enable-background:new 0 0 1300 1080;" xml:space="preserve">
<style type="text/css">
	.st0{fill:#EFE8CB;}
</style>
<g>
	<g>
		<path d="M467.81,435.11h18.2l49.4,124.8h0.4l48.2-124.8h18.8v143h-13v-124.6h-0.4c0,0-3.8,11.4-6.8,19.4l-41.4,105.2h-11.8
			l-41.8-105.2c-3-7.4-7-19.4-7-19.4h-0.4v124.6h-12.4V435.11z"/>
		<path d="M620,560.71h15.2v17.4H620V560.71z"/>
		<path d="M651.4,435.11h97.2v11.8h-83.8v51.4h76.8v11.6h-76.8v55.8h86v12.4h-99.4V435.11z"/>
		<path d="M770.2,560.71L770.2,560.71c4.2,0,7.6,3.4,7.6,7.6v2.2c0,4.2-3.4,7.6-7.6,7.6l0,0c-4.2,0-7.6-3.4-7.6-7.6v-2.2
			C762.6,564.11,766,560.71,770.2,560.71z"/>
	</g>
</g>
</svg>
