<?xml version="1.0" encoding="UTF-8"?>
<svg id="Layer_1" xmlns="http://www.w3.org/2000/svg" viewBox="100 20 1300 1080">
  <defs>
    <style>
      .cls-1 {
        stroke-width: 0px;
      }
    </style>
  </defs>
  <path class="cls-1"
    d="M243.51,428.04h14.85l40.31,100.82h.33l39.33-100.82h15.34v115.52h-10.61v-100.66h-.33s-3.1,9.21-5.55,15.67l-33.78,84.98h-9.63l-34.11-84.98c-2.45-5.98-5.71-15.67-5.71-15.67h-.33v100.66h-10.12v-115.52Z" />
  <path class="cls-1"
    d="M401.31,428.04h12.4l44.39,115.52h-11.75l-13.54-36.35h-50.75l-13.71,36.35h-11.1l44.06-115.52ZM429.54,498.32l-15.99-43.14c-2.45-6.46-5.87-16.8-5.87-16.8h-.33s-3.1,9.86-5.71,16.8l-16.32,43.14h44.22Z" />
  <path class="cls-1"
    d="M461.69,428.04h41.45c34.43,0,49.93,23.91,49.93,58.16s-16.64,57.36-51.08,57.36h-40.31v-115.52ZM501.67,534.03c27.9,0,39.98-18.58,39.98-47.82s-10.93-48.63-38.84-48.63h-30.19v96.46h29.05Z" />
  <path class="cls-1" d="M561.24,428.04h79.31v9.53h-68.37v41.52h62.66v9.37h-62.66v45.08h70.17v10.02h-81.1v-115.52Z" />
  <path class="cls-1" d="M653.93,428.04h10.93v105.5h62.17v10.02h-73.11v-115.52Z" />
  <path class="cls-1" d="M733.24,428.04h79.31v9.53h-68.37v41.52h62.66v9.37h-62.66v45.08h70.17v10.02h-81.1v-115.52Z" />
  <path class="cls-1" d="M826.42,428.04h10.93v115.52h-10.93v-115.52Z" />
  <path class="cls-1"
    d="M850.73,428.04h11.91l53.69,81.11c5.87,8.72,11.59,19.07,11.59,19.07h.33v-100.17h10.44v115.52h-11.42l-53.52-80.14c-5.38-8.08-12.24-19.55-12.24-19.55h-.33v99.69h-10.44v-115.52Z" />
  <path class="cls-1" d="M954.68,428.04h79.31v9.53h-68.37v41.52h62.66v9.37h-62.66v45.08h70.17v10.02h-81.1v-115.52Z" />
  <path class="cls-1" d="M299.95,563.79h79.31v9.53h-68.37v41.52h62.66v9.37h-62.66v45.08h70.17v10.02h-81.1v-115.52Z" />
  <path class="cls-1"
    d="M393.64,563.79h41.45c34.43,0,49.93,23.91,49.93,58.16s-16.64,57.36-51.08,57.36h-40.31v-115.52ZM433.62,669.78c27.9,0,39.98-18.58,39.98-47.82s-10.93-48.63-38.84-48.63h-30.19v96.46h29.05Z" />
  <path class="cls-1"
    d="M483.07,563.79h11.26l20.23,77.87c2.28,8.56,5.38,22.78,5.38,22.78h.33s3.26-13.89,5.55-22.13l21.38-78.52h11.75l21.38,78.36c2.12,8.24,5.38,22.3,5.38,22.3h.33s3.26-14.22,5.39-22.78l20.4-77.87h10.93l-31.66,115.52h-11.1l-22.19-84.18c-2.12-7.27-4.57-18.74-4.57-18.74h-.33s-2.45,11.31-4.41,18.74l-22.85,84.18h-11.59l-31.01-115.52Z" />
  <path class="cls-1"
    d="M645.6,563.79h12.4l44.39,115.52h-11.75l-13.54-36.35h-50.75l-13.71,36.35h-11.1l44.06-115.52ZM673.83,634.08l-15.99-43.14c-2.45-6.46-5.87-16.8-5.87-16.8h-.33s-3.1,9.86-5.71,16.8l-16.32,43.14h44.22Z" />
  <path class="cls-1"
    d="M705.98,563.79h52.06c21.05,0,33.13,11.96,33.13,31.18,0,14.22-6.2,23.59-19.58,27.79v.48c12.08,4.04,15.99,12.76,16.81,30.7.82,18.58,2.94,23.27,5.06,24.72v.65h-11.75c-2.61-1.78-3.26-6.14-4.24-25.85-.98-20.03-8-25.69-24.97-25.69h-35.57v51.54h-10.93v-115.52ZM754.28,618.56c16.97,0,25.62-8.24,25.62-22.62s-6.53-22.62-24.15-22.62h-38.84v45.24h37.37Z" />
  <path class="cls-1"
    d="M800.79,563.79h41.45c34.43,0,49.93,23.91,49.93,58.16s-16.64,57.36-51.08,57.36h-40.31v-115.52ZM840.77,669.78c27.9,0,39.98-18.58,39.98-47.82s-10.93-48.63-38.84-48.63h-30.19v96.46h29.05Z" />
  <path class="cls-1"
    d="M893.65,641.83h10.93c1.14,19.55,14.52,30.54,36.39,30.54,17.13,0,29.86-8.56,29.86-24.24s-10.93-20.2-35.9-25.2c-21.54-4.2-36.72-10.66-36.72-30.86,0-18.42,15.67-30.54,39-30.54,25.95,0,39,13.89,41.12,33.77h-10.61c-1.96-16.32-13.71-24.72-30.35-24.72-17.79,0-28.56,8.4-28.56,21.17,0,13.73,10.77,17.93,31.66,21.81,22.68,4.36,41.45,9.86,41.45,34.09,0,20.52-16.64,33.77-41.12,33.77-30.68,0-45.85-17.13-47.16-39.58Z" />
</svg>