<?xml version="1.0" encoding="utf-8"?>
<!-- Generator: Adobe Illustrator 27.8.1, SVG Export Plug-In . SVG Version: 6.00 Build 0)  -->
<svg version="1.1" id="Layer_1" xmlns="http://www.w3.org/2000/svg" xmlns:xlink="http://www.w3.org/1999/xlink" x="0px" y="0px"
	 viewBox="0 0 1300 1080" style="enable-background:new 0 0 1300 1080;margin: -70px" xml:space="preserve">
<style type="text/css">
	.stC{fill:#F9F7EB;}
</style>
<g>
	<path class="stC" d="M487.8,468.5H506l49.4,124.8h0.4L604,468.5h18.8v143h-13V486.9h-0.4c0,0-3.8,11.4-6.8,19.4l-41.4,105.2h-11.8
		l-41.8-105.2c-3-7.4-7-19.4-7-19.4h-0.4v124.6h-12.4V468.5z"/>
	<path class="stC" d="M640,594.1h15.2v17.4H640V594.1z"/>
	<path class="stC" d="M671.4,468.5h97.2v11.8h-83.8v51.4h76.8v11.6h-76.8v55.8h86v12.4h-99.4V468.5z"/>
	<path class="stC" d="M790.2,594.1L790.2,594.1c4.2,0,7.6,3.4,7.6,7.6v2.2c0,4.2-3.4,7.6-7.6,7.6l0,0c-4.2,0-7.6-3.4-7.6-7.6v-2.2
		C782.6,597.5,786,594.1,790.2,594.1z"/>
</g>
</svg>
